<svg width="911" height="911" viewBox="0 0 911 911" fill="none" xmlns="http://www.w3.org/2000/svg">
<g filter="url(#filter0_i_3017_2668)">
<circle cx="455.022" cy="455.022" r="455.022" fill="#FAFAFA"/>
</g>
<g filter="url(#filter1_d_3017_2668)">
<path d="M423.189 729.816C421.271 729.454 419.343 729.137 417.442 728.721C412.048 727.546 407.26 725.067 402.816 721.866C391.837 713.953 381.039 705.795 370.196 697.71C331.033 668.526 291.852 639.369 252.661 610.211C245.638 604.993 240.615 598.346 238.243 589.89C235.437 579.915 236.822 570.41 241.918 561.429C242.769 559.928 243.755 558.481 244.778 557.079C282.9 505.014 321.05 452.958 359.172 400.902C365.327 392.5 373.446 387.264 383.818 385.835C393.349 384.524 402.074 386.784 409.912 392.328C413.632 394.96 417.234 397.764 420.872 400.504C422.321 401.598 422.312 401.797 420.972 403.172C416.22 408.046 411.613 413.048 407.133 418.166C394.154 432.989 382.288 448.689 370.613 464.534C365.418 471.579 360.231 478.624 355.036 485.678C354.783 486.031 354.538 486.393 354.267 486.727C353.706 487.433 353.624 488.12 354.14 488.907C359.987 497.878 366.504 506.244 375.736 512.041C385.601 518.236 396.127 519.321 407.197 515.948C415.035 513.56 422.058 509.572 428.711 504.878C437.544 498.638 445.563 491.43 453.211 483.815C464.082 472.981 475.531 462.761 486.799 452.361C488.465 450.824 488.619 450.842 490.664 452.361C512.73 468.775 534.787 485.19 556.844 501.595C579.372 518.354 601.855 535.166 624.437 551.843C631.695 557.197 636.854 563.889 639.199 572.634C644.855 593.725 631.913 614.471 610.96 618.477C600.633 620.458 591.129 618.206 582.594 612.02C581.725 611.387 580.875 610.745 579.707 609.877C579.906 611.704 580.078 613.151 580.223 614.607C580.766 620.277 580.449 625.866 578.757 631.347C577.227 636.276 574.684 640.626 571.027 644.252C564.682 650.538 557.152 654.653 548.228 655.846C541.829 656.705 535.692 655.476 529.845 652.79C527.013 651.487 524.333 649.905 521.79 648.096C521.211 647.689 520.614 647.3 519.727 646.694C519.935 648.485 520.125 649.941 520.279 651.397C520.84 656.769 520.614 662.087 519.12 667.305C517.591 672.632 514.893 677.307 510.893 681.133C504.05 687.68 496.049 691.868 486.473 692.655C480.862 693.116 475.54 691.94 470.417 689.733C467.349 688.413 464.489 686.713 461.764 684.786C461.185 684.379 460.696 683.801 459.936 683.665C459.538 684.144 459.846 684.615 459.936 685.076C461.031 691.135 460.914 697.158 459.366 703.136C457.619 709.865 454.035 715.445 448.74 719.904C442.685 725.013 435.752 728.233 427.869 729.354C427.317 729.436 426.692 729.318 426.24 729.797H423.199L423.189 729.816Z" fill="url(#paint0_linear_3017_2668)"/>
<path d="M280.373 324.406C281.383 325.128 282.6 324.803 283.709 325.029C289.031 326.103 293.883 328.216 298.23 331.439C310.514 340.538 322.86 349.566 335 358.856C344.497 366.123 349.286 375.873 348.726 387.961C348.402 395.084 345.777 401.421 341.592 407.153C333.548 418.167 325.521 429.19 317.485 440.204C292.025 475.123 266.565 510.033 241.113 544.961C238.588 548.427 235.747 551.542 232.302 554.124C220.325 563.097 203.784 561.319 193.819 553.961C184.25 546.893 174.717 539.761 165.175 532.656C162.108 530.372 159.024 528.115 155.976 525.804C148.643 520.225 144.125 512.94 142.619 503.804C142.492 503.045 142.492 502.206 141.825 501.637V495.57C142.402 495.038 142.474 494.288 142.574 493.593C143.421 487.671 145.892 482.471 149.401 477.668C177.711 438.868 205.985 400.058 234.277 361.239C239.625 353.899 244.955 346.533 250.34 339.211C255.751 331.845 262.75 326.871 271.823 325.02C272.932 324.794 274.15 325.11 275.169 324.406H280.363H280.373Z" fill="url(#paint1_linear_3017_2668)"/>
<path d="M762.662 532.303C761.944 533.475 762.307 534.837 761.971 536.099C758.789 548.191 751.379 556.486 739.37 560.363C729.296 563.618 719.096 566.495 708.94 569.515C703.867 571.03 698.731 572.374 693.694 573.988C677.939 579.055 658.046 570.796 652.164 552.23C649.164 542.744 646.464 533.169 643.673 523.629C630.172 477.49 616.68 431.341 603.189 385.193C600.734 376.799 600.816 368.521 604.543 360.496C608.843 351.227 616.217 345.33 625.917 342.381C640.7 337.873 655.528 333.509 670.374 329.244C689.003 323.897 706.968 333.788 712.423 352.273C720.296 378.954 728.151 405.652 735.997 432.342C744.388 460.908 752.734 489.482 761.153 518.038C761.826 520.32 762.035 522.682 762.662 524.954V532.312V532.303Z" fill="url(#paint2_linear_3017_2668)"/>
<path d="M638.826 553.405C638.474 553.214 638.248 553.16 638.131 553.015C634.739 548.875 630.454 545.788 626.233 542.62C581.309 508.876 536.394 475.131 491.469 441.387C491.415 441.342 491.352 441.296 491.298 441.251C487.933 438.736 486.634 438.791 483.558 441.578C467.79 455.867 452.472 470.638 437.11 485.354C429.929 492.235 422.315 498.545 413.502 503.247C409.406 505.435 405.167 507.205 400.557 507.968C393.746 509.103 387.35 508.031 381.397 504.491C375.118 500.76 370.355 495.458 366.07 489.639C365.601 489.003 365.637 488.513 366.097 487.905C367.36 486.225 368.569 484.509 369.796 482.803C380.702 467.714 391.527 452.553 403.308 438.128C416.244 422.286 429.929 407.153 445.228 393.562C454.069 385.709 463.442 378.61 473.978 373.154C484.081 367.925 494.744 364.575 506.02 363.122C518.451 361.525 530.918 361.316 543.385 362.405C553.046 363.25 562.5 365.183 571.548 368.815C575.797 370.521 579.73 372.755 583.248 375.723C587.127 379.001 589.698 383.077 591.105 387.961C598.178 412.554 605.286 437.147 612.395 461.741C620.982 491.482 629.588 521.222 638.185 550.972C638.402 551.726 638.591 552.488 638.835 553.405H638.826Z" fill="url(#paint3_linear_3017_2668)"/>
</g>
<path d="M605.418 226.366C596.951 227.798 589.389 231.258 582.386 236.038C571.075 243.757 561.913 253.675 553.651 264.546C540.84 281.411 530.64 299.857 521.372 318.873C521.03 319.575 520.851 320.395 520.04 320.981C518.776 317.829 517.944 314.619 517.044 311.436C513.174 297.759 510.809 283.865 511.346 269.582C512.105 249.603 518.687 232.094 532.857 217.768C542.093 208.425 552.993 201.691 564.878 196.463C580.78 189.463 597.478 185.305 614.533 182.436C625.928 180.519 637.392 179.247 648.902 178.427C655.195 177.98 661.503 177.746 667.812 177.517C678.222 177.139 688.632 177.368 699.043 177.288C699.327 177.288 699.611 177.277 699.896 177.288C700.227 177.299 700.664 177.197 700.833 177.527C701.08 178.028 700.559 178.204 700.285 178.454C696.678 181.712 693.182 185.076 689.864 188.643C682.845 196.186 676.995 204.566 672.114 213.664C666.29 224.518 662.025 236.054 657.712 247.558C651.646 263.726 644.648 279.436 635.554 294.129C628.182 306.037 619.767 317.078 609.01 326.107C600.126 333.565 590.132 338.676 578.574 340.284C569.296 341.577 560.328 340.103 551.566 336.994C546.395 335.157 541.556 332.602 536.732 330.004C535.316 329.237 534.905 328.45 535.437 326.735C540.345 310.887 546.279 295.476 553.993 280.799C560.918 267.628 569.18 255.411 579.732 244.897C587.162 237.497 595.435 231.284 604.871 226.717C605.065 226.621 605.245 226.493 605.429 226.381L605.418 226.366Z" fill="url(#paint4_linear_3017_2668)"/>
<path d="M511.262 320.029C508.145 317.463 505.358 315.131 502.535 312.852C494.145 306.078 485.402 299.813 475.892 294.73C468.279 290.659 460.367 287.421 451.756 286.154C447.33 285.502 442.961 285.714 438.597 286.689C442.015 286.944 445.39 287.415 448.723 288.184C458.333 290.394 466.981 294.719 475.072 300.285C485.034 307.138 493.624 315.529 501.678 324.518C502.094 324.984 502.43 325.525 502.845 325.992C504.953 328.329 504.953 327.931 503.119 330.359C498.729 336.158 493.587 341.114 486.906 344.198C478.01 348.301 468.937 347.999 459.805 345.19C449.49 342.015 440.574 336.269 432.026 329.813C425.092 324.571 418.925 318.497 412.879 312.285C407.47 306.725 402.023 301.191 395.957 296.357C388.801 290.659 380.826 286.461 372.142 283.647C371.616 283.477 370.775 283.461 370.696 282.931C370.58 282.184 371.5 282.072 372.005 281.839C378.561 278.802 385.206 275.988 391.924 273.337C402.46 269.182 413.179 265.588 424.188 262.954C434.823 260.404 445.574 258.714 456.556 259.063C468.316 259.44 479.404 262.074 489.019 269.314C495.517 274.207 500.275 280.546 503.686 287.945C508.192 297.73 510.384 308.087 511.262 318.778C511.283 319.053 511.262 319.329 511.262 320.044V320.029Z" fill="url(#paint5_linear_3017_2668)"/>
<defs>
<filter id="filter0_i_3017_2668" x="0" y="0" width="911.044" height="911.043" filterUnits="userSpaceOnUse" color-interpolation-filters="sRGB">
<feFlood flood-opacity="0" result="BackgroundImageFix"/>
<feBlend mode="normal" in="SourceGraphic" in2="BackgroundImageFix" result="shape"/>
<feColorMatrix in="SourceAlpha" type="matrix" values="0 0 0 0 0 0 0 0 0 0 0 0 0 0 0 0 0 0 127 0" result="hardAlpha"/>
<feMorphology radius="1" operator="erode" in="SourceAlpha" result="effect1_innerShadow_3017_2668"/>
<feOffset dx="1" dy="1"/>
<feGaussianBlur stdDeviation="2"/>
<feComposite in2="hardAlpha" operator="arithmetic" k2="-1" k3="1"/>
<feColorMatrix type="matrix" values="0 0 0 0 0 0 0 0 0 0 0 0 0 0 0 0 0 0 0.1 0"/>
<feBlend mode="normal" in2="shape" result="effect1_innerShadow_3017_2668"/>
</filter>
<filter id="filter1_d_3017_2668" x="139.825" y="323.406" width="624.837" height="409.409" filterUnits="userSpaceOnUse" color-interpolation-filters="sRGB">
<feFlood flood-opacity="0" result="BackgroundImageFix"/>
<feColorMatrix in="SourceAlpha" type="matrix" values="0 0 0 0 0 0 0 0 0 0 0 0 0 0 0 0 0 0 127 0" result="hardAlpha"/>
<feOffset dy="1"/>
<feGaussianBlur stdDeviation="1"/>
<feComposite in2="hardAlpha" operator="out"/>
<feColorMatrix type="matrix" values="0 0 0 0 0 0 0 0 0 0 0 0 0 0 0 0 0 0 0.25 0"/>
<feBlend mode="normal" in2="BackgroundImageFix" result="effect1_dropShadow_3017_2668"/>
<feBlend mode="normal" in="SourceGraphic" in2="effect1_dropShadow_3017_2668" result="shape"/>
</filter>
<linearGradient id="paint0_linear_3017_2668" x1="438.672" y1="385.472" x2="438.672" y2="618.621" gradientUnits="userSpaceOnUse">
<stop stop-color="#D6BFF3"/>
<stop offset="1" stop-color="#8029E2"/>
</linearGradient>
<linearGradient id="paint1_linear_3017_2668" x1="245.298" y1="324.406" x2="245.298" y2="484.05" gradientUnits="userSpaceOnUse">
<stop stop-color="#D6BFF3"/>
<stop offset="1" stop-color="#8029E2"/>
</linearGradient>
<linearGradient id="paint2_linear_3017_2668" x1="682.089" y1="327.798" x2="682.089" y2="495.482" gradientUnits="userSpaceOnUse">
<stop stop-color="#D6BFF3"/>
<stop offset="1" stop-color="#8029E2"/>
</linearGradient>
<linearGradient id="paint3_linear_3017_2668" x1="502.285" y1="361.726" x2="502.285" y2="491.509" gradientUnits="userSpaceOnUse">
<stop stop-color="#D6BFF3"/>
<stop offset="1" stop-color="#8029E2"/>
</linearGradient>
<linearGradient id="paint4_linear_3017_2668" x1="606.084" y1="177.281" x2="606.084" y2="340.753" gradientUnits="userSpaceOnUse">
<stop stop-color="#9DD151"/>
<stop offset="1" stop-color="#83B23C"/>
</linearGradient>
<linearGradient id="paint5_linear_3017_2668" x1="440.979" y1="259.018" x2="440.979" y2="347.292" gradientUnits="userSpaceOnUse">
<stop stop-color="#9DD151"/>
<stop offset="1" stop-color="#83B23C"/>
</linearGradient>
</defs>
</svg>
