<?xml version="1.0" encoding="UTF-8"?>
<svg xmlns="http://www.w3.org/2000/svg" version="1.1" viewBox="0 0 58 56">
  <defs>
    <style>
      .cls-1 {
        fill: #494949;
      }
    </style>
  </defs>
  <!-- Generator: Adobe Illustrator 28.6.0, SVG Export Plug-In . SVG Version: 1.2.0 Build 709)  -->
  <g>
    <g id="Layer_1">
      <path class="cls-1" d="M39.1,0s-9.5,2.2-12.3,11.2c0,0-5.3,20.6-7.2,29.5-2.1,9.5-.4,14.6,5.5,15.2,4.5.5,7.7-2.5,8.3-8.1.7-5.6-1.6-9.3-6.2-9.8-.6,0-1.7-.5-1.2-1.9,2-5.7,4.8-5.3,7.3-13.4L39.1,0ZM9.1,21.5c-5.7,0-9.1,2.7-9.1,7.2s4.8,8.1,14.6,7.2c1.1-.1,2.1-.3,3.5-.4.4-1.7.8-3.5,1.3-5.4-1.3.1-1.2-.8-1.2-1.4,0-4.5-3.4-7.2-9.1-7.2ZM58,21.5l-22,3.2c-.9,2.6-2.1,5-3.7,7.2-.5.7-1,1.4-1.4,2.2,8.2-1,14.4-1.8,14.4-1.8,9.4-1.7,12.8-10.8,12.8-10.8ZM9.1,25.1c5.5,0,5.5,2.7,5.5,3.6s0,3.6-5.5,3.6-5.5-2.7-5.5-3.6,0-3.6,5.5-3.6ZM24.3,30.6c1,0,1.8.8,1.8,1.8,0,.5-.2.9-.5,1.3-.3.3-.8.5-1.3.5-.5,0-.9-.2-1.3-.5-.3-.3-.5-.8-.5-1.3,0-.5.2-.9.5-1.3s.8-.5,1.3-.5ZM25.8,41.7c.4,0,.8,0,1,0,.9.1,3.6.5,2.9,5.8-.6,5.3-3.4,5-4.3,4.9-.9-.1-3.6-.4-2.9-5.7.5-4,2.1-4.8,3.3-5Z"/>
    </g>
  </g>
</svg>