<svg width="58" height="56" viewBox="0 0 58 56" fill="none" xmlns="http://www.w3.org/2000/svg">
<path d="M39.0866 0C39.0866 0 29.6321 2.2294 26.7585 11.2419C26.7585 11.2419 21.4866 31.8871 19.5433 40.6966C17.4475 50.2035 19.151 55.2561 25.008 55.9404C29.5357 56.4701 32.6693 53.4439 33.3439 47.8704C34.0119 42.2925 31.7077 38.604 27.1799 38.0742C26.5299 37.9992 25.4854 37.6129 25.9875 36.1428C27.9375 30.3972 30.7618 30.8673 33.2722 22.6936L39.0866 0ZM9.10705 21.5215C3.40254 21.5215 0 24.2012 0 28.6953C0 34.5006 4.80793 36.7962 14.6412 35.8691C15.7463 35.7654 16.737 35.602 18.1424 35.4541C18.5391 33.7766 18.9493 31.9445 19.4043 30.0727C18.1087 30.2095 18.2141 29.2957 18.2141 28.6953C18.2141 24.2012 14.8071 21.5215 9.10705 21.5215ZM58 21.5215L36.0023 24.6934C35.1172 27.2461 33.8674 29.6617 32.2905 31.8672C31.7884 32.5868 31.3311 33.2623 30.8896 34.0746C39.1224 33.0967 45.2483 32.28 45.2483 32.28C54.6782 30.534 58 21.5215 58 21.5215ZM9.10705 25.1062C14.5717 25.1062 14.5717 27.808 14.5717 28.6953C14.5717 29.5804 14.5717 32.28 9.10705 32.28C3.64237 32.28 3.64237 29.5804 3.64237 28.6953C3.64237 27.808 3.64237 25.1062 9.10705 25.1062ZM24.3064 30.5583C25.3016 30.5583 26.1287 31.3706 26.1287 32.3506C26.1252 32.8253 25.932 33.2795 25.5909 33.615C25.2499 33.9504 24.7884 34.1401 24.3064 34.143C23.8249 34.139 23.3644 33.9488 23.0239 33.6136C22.6835 33.2783 22.4904 32.8248 22.4863 32.3506C22.4904 31.8763 22.6834 31.4225 23.0238 31.0869C23.3642 30.7513 23.8247 30.5629 24.3064 30.5583ZM25.7768 41.6612C26.169 41.6236 26.5344 41.6369 26.7585 41.6612C27.6529 41.7627 30.3449 42.1115 29.7016 47.4554C29.056 52.7971 26.3215 52.455 25.4271 52.3557C24.5328 52.2519 21.8408 51.9716 22.4863 46.6277C22.9682 42.6213 24.6023 41.7804 25.7768 41.6612Z" fill="black"/>
</svg>
