<?xml version="1.0" encoding="UTF-8"?>
<svg id="Layer_1" xmlns="http://www.w3.org/2000/svg" viewBox="0 0 272.65 275.47">
  <defs>
    <style>
      .cls-1 {
        fill: none;
        stroke: #808285;
        stroke-miterlimit: 10;
      }
    </style>
  </defs>
  <path class="cls-1" d="M126.44,22.67c5.11,0,10.23,0,15.34,0,4.48.61,8.98,1.08,13.43,1.86,46.09,8.12,83.92,45.5,92.65,91.37,1.17,6.16,1.71,12.38,2.29,18.6v7.92c-.55,5.32-.89,10.65-1.75,15.94-7.54,46.49-45.27,85.3-91.48,94.09-6,1.14-12.05,1.68-18.11,2.3h-9.4c-4.58-.49-9.22-.63-13.72-1.52-48.32-9.48-79.67-37.8-93.89-84.98-2.1-6.96-2.85-14.19-3.73-21.38,0-5.44,0-10.89,0-16.33.42-3.18.79-6.36,1.26-9.53,6.87-45.62,40.59-83.05,85.23-94.68,7.19-1.87,14.51-2.84,21.87-3.66ZM22.63,138.95c.07,2.98.15,6.34.44,9.72,1.3,14.74,5.05,28.84,12.34,41.67,23.27,40.95,58.49,61.05,105.75,59.33,15.47-.56,30.27-4.52,43.75-12.03,41.23-22.97,61.62-58.12,60.19-105.5-.49-16.17-5.11-31.32-12.61-45.61-1.35-2.56-1.47-2.57-3.79-.86-10.31,7.58-18.36,17.2-25.38,27.8-10.37,15.68-19.45,32.18-30.22,47.61-1.07,1.53-.68,2.59.21,3.98,5.8,9,9.43,18.68,8.7,29.59-.4,5.98-2.94,10.74-8.3,13.77-.5.28-1.06.72-1.59.32-.6-.44-.14-1.06.05-1.58,1.77-4.91,2.9-9.95,3.35-15.16.73-8.5-.73-16.56-4.56-24.21-.92-1.84-1.58-1.62-2.69-.14-1.93,2.57-3.96,5.07-6.04,7.52-8.63,10.14-18.42,18.88-30.49,24.79-14.11,6.91-29.07,8.76-44.54,7.25-9.15-.89-17.74-3.48-25.37-8.88-12.72-9.01-17.56-23.94-11.9-38.45,5.44-13.93,16.31-22.08,30.14-26.47,11.98-3.8,24.3-4.14,36.68-2.34,1.83.27,2.41-.47,2.55-2.05.14-1.56,0-2.84-2.08-2.78-3.22.1-6.42-.15-9.62-.5-8.31-.91-16.19-3.12-23.14-7.94-15.34-10.63-15.13-30.41.49-40.59,8.46-5.51,17.84-7.02,27.73-5.48,6.27.98,12.21,3.01,17.11,7.2,3.56,3.04,6.17,6.7,5.26,11.82-.11.62.1,1.5-.68,1.71-.87.23-.97-.72-1.25-1.24-8.2-15.25-29.2-21-45.08-12.52-15.19,8.11-16.84,26.75-3.08,37.06,9.93,7.44,21.67,8.65,33.63,8.62.94,0,1.51-.56,1.76-1.46.16-.56.34-1.1.5-1.66,7.37-25.32,32.99-45.76,59.26-47.19,5.92-.32,11.71.4,17.01,3.34,5.94,3.28,7.89,8.84,5.42,15.1-.89,2.25-2.17,4.25-3.79,6.04-5.78,6.37-13.12,10.43-20.81,13.94-15.21,6.93-31.15,11.14-47.77,12.85-4.44.46-4.61.7-5.55,4.76-.39,1.7-.04,2.56,1.75,3.03,9.82,2.59,18.92,6.77,27.23,12.62,1.28.9,2.32.82,3.61.08,3.01-1.73,5.93-3.59,8.68-5.7,12.64-9.68,23.57-21.1,33.59-33.42,7.69-9.46,16.35-17.88,26.6-24.58,2.86-1.87,2.84-1.89,1.05-4.7-.18-.28-.35-.56-.54-.83-27.73-38.27-65.12-54.93-111.8-47.54-53.27,8.44-92.08,55.43-92.13,109.89ZM98.69,205.66c9.97.24,21.72-4.06,32.36-11.59,13.25-9.37,22.35-22.5,31.68-35.41.74-1.02.48-1.82-.34-2.6-1.85-1.76-3.72-3.5-5.52-5.31-1.26-1.27-2.49-1.43-4.19-.71-5.15,2.19-10.44,3.22-16.14,2.48-9.32-1.22-15.79-7.13-17.12-16.45-.29-2.05-1.42-2.59-3.08-2.84-8.44-1.26-16.89-1.59-25.34-.02-15.45,2.87-27.15,10.83-33.63,25.44-7.75,17.5-.83,35.23,16.61,43.06,6.83,3.07,14.09,3.85,24.72,3.95ZM184.54,77.25c-5.08-.26-9.78.91-14.36,2.64-9.18,3.48-16.98,9.07-23.98,15.84-7.71,7.46-14.08,15.92-18.56,25.72-.53,1.17-1.52,2.69,1.17,2.36,11.06-1.36,22-3.32,32.58-6.9,10.96-3.7,21.74-7.85,31.02-14.99,3.41-2.62,6.52-5.59,8.23-9.7,2.35-5.66.45-10.55-5.13-13.06-3.53-1.58-7.25-2.16-10.97-1.92ZM140.54,150.76c3.55.17,7.1-.82,10.61-2.09,1.58-.57,1.52-1.2.22-2.08-7.78-5.28-16.3-8.9-25.34-11.37-1.33-.36-1.95.06-2.04,1.54-.3,5.05,2.26,9.65,6.76,11.97,3,1.54,6.21,2.1,9.79,2.03ZM184.33,127.11c-.32-.34-.51-.11-.65.03-7.78,7.63-15.93,14.8-25.45,20.25-1.15.66-.79,1.14,0,1.8,1.82,1.54,3.63,3.11,5.36,4.75,1.11,1.05,1.86,1.02,2.74-.28,5.98-8.87,12.01-17.72,18.01-26.56Z"/>
</svg>