<?xml version="1.0" encoding="UTF-8"?>
<svg id="Layer_1" xmlns="http://www.w3.org/2000/svg" viewBox="0 0 45.45 43.09">
  <defs>
    <style>
      .cls-1 {
        fill: #464646;
      }
    </style>
  </defs>
  <path class="cls-1" d="M22.9,0c1.7,1.51,3.41,3.01,5.11,4.52,3,2.65,6,5.31,8.99,7.97,2.75,2.44,5.5,4.88,8.26,7.31.23.2.26.34.04.58-.67.73-1.31,1.47-1.95,2.22-.18.21-.3.19-.49.02-2.2-1.96-4.4-3.91-6.61-5.86-3.22-2.85-6.43-5.7-9.65-8.54-1.2-1.06-2.4-2.12-3.6-3.2-.18-.17-.3-.19-.5-.01-5.16,4.58-10.32,9.16-15.48,13.73-1.45,1.28-2.9,2.55-4.34,3.85-.26.24-.39.19-.6-.05C1.4,21.73.7,20.95,0,20.17c0-.05,0-.1,0-.15,2.6-2.3,5.19-4.61,7.79-6.91,3.01-2.67,6.03-5.34,9.05-8.01C18.76,3.4,20.68,1.7,22.6,0c.1,0,.2,0,.3,0Z"/>
  <path class="cls-1" d="M38.77,32.13c0,3.23,0,6.47,0,9.7,0,.92-.34,1.26-1.25,1.26-3.06,0-6.12,0-9.17,0q-.61,0-.61-.59c0-2.68,0-5.36,0-8.04,0-.86-.3-1.16-1.17-1.16-2.57,0-5.13,0-7.7,0-.78,0-1.11.32-1.11,1.1,0,2.7,0,5.41,0,8.11q0,.57-.55.57c-3.11,0-6.22,0-9.33,0-.78,0-1.16-.38-1.16-1.17,0-6.56,0-13.12,0-19.67,0-.28.1-.46.31-.65,3-2.65,6-5.31,9-7.96,2.14-1.89,4.28-3.78,6.41-5.68.26-.24.42-.2.66.01,1.88,1.67,3.76,3.34,5.64,5,3.02,2.67,6.02,5.37,9.06,8,.71.61,1.03,1.21,1,2.17-.07,2.99-.03,5.99-.03,8.98Z"/>
  <path class="cls-1" d="M6.73,7.14c0-1.28.01-2.55,0-3.83,0-.37.12-.47.48-.47,1.64.02,3.28.01,4.92,0,.35,0,.45.09.43.45-.04.88-.02,1.77-.02,2.65,0,.21-.04.38-.21.54-1.75,1.58-3.5,3.17-5.25,4.75-.07.07-.15.17-.25.14-.14-.05-.09-.19-.09-.3,0-1.31,0-2.63,0-3.94Z"/>
</svg>