<?xml version="1.0" encoding="UTF-8"?>
<svg id="Layer_1" xmlns="http://www.w3.org/2000/svg" viewBox="0 0 588.43 352.95">
  <defs>
    <style>
      .cls-1 {
        fill: #2b2b2b;
      }

      .cls-2 {
        fill: #fff;
        stroke: #231f20;
        stroke-miterlimit: 10;
      }
    </style>
  </defs>
  <path class="cls-2" d="M80.62,320.33c6.62-.28,7.37-.75,7.37-5.5v-46.45c0-4.76-.75-5.22-7.37-5.5v-3.54h29.66v3.54c-6.62.28-7.37.75-7.37,5.5v19.21h24.53v-19.21c0-4.76-.75-5.22-7.37-5.5v-3.54h29.66v3.54c-6.62.28-7.37.75-7.37,5.5v46.45c0,4.76.75,5.22,7.37,5.5v3.54h-29.66v-3.54c6.62-.28,7.37-.75,7.37-5.5v-22.76h-24.53v22.76c0,4.76.75,5.22,7.37,5.5v3.54h-29.66v-3.54Z"/>
  <g>
    <path class="cls-1" d="M312.73,245.22c4.25-4.51,9.08-7.74,14.38-10.26,8.2-3.89,16.81-6.58,25.59-8.81,11.5-2.92,23.21-4.83,34.81-7.26,1.54-.32,2.56-.96,3.4-2.32,2.78-4.55,5.7-9.02,8.3-13.76-1.09,1.1-2.14,2.24-3.28,3.29-3.36,3.1-6.79,6.13-10.96,8.15-3.03,1.46-6.19,1.95-9.51,1.33-4.33-.81-7.08-3.4-8.43-7.56-1.72-5.29-1.11-10.56.12-15.83.71-3.02,1.69-5.95,2.58-8.98-1.08,1.34-2.15,2.68-3.24,4.01-6.97,8.46-14.16,16.71-22.93,23.4-3.23,2.47-6.62,4.63-10.81,5.08-4.19.45-7.4-1.34-9.23-5.17-1.6-3.38-1.93-6.88-1.04-10.52,1.73-7.12,5.11-13.53,8.65-19.85,5.47-9.77,11.58-19.13,17.89-28.37.38-.55.7-1.13,1.57-1.05,5.51.53,10.71-.83,15.83-2.63.22-.08.45-.13.88-.26-2.95,3.94-5.81,7.67-8.57,11.47-8.94,12.26-17.77,24.6-25.67,37.57-1.93,3.16-3.54,6.49-4.38,10.13-1.14,4.96,1.33,7.3,6.18,5.83,4.11-1.24,7.32-3.98,10.51-6.68,7.16-6.07,13.32-13.08,19.22-20.33,3.38-4.15,6.88-8.21,10.07-12.5,2.67-3.58,4.98-7.43,8.01-10.75,5.22-5.7,11.12-10.48,18.51-13.08,4.98-1.75,10.06-1.6,15.06-.05,5.42,1.69,8.45,6.21,8.59,12.54.01.66,0,1.32,0,2.37,1.53-1.8,2.8-3.31,4.07-4.8,5.35-6.26,10.95-12.28,17.63-17.18,5.3-3.88,10.95-7.07,17.58-8.09,1.66-.26,3.33-.46,5.04-.31-6.41,1.53-10.8,5.99-15.12,10.49-9.04,9.43-16.21,20.25-23.2,31.21-7.35,11.52-14.07,23.42-21.34,35-.45.72-.91,1.43-1.56,2.45,4.28-1.37,8.09-2.9,11.82-4.65,11.52-5.41,21.03-13.38,29.19-23.06,1.69-2.01,3.34-4.06,5.09-6.01,4.81-5.37,7.97-11.85,11.98-17.75,2.24-3.3,4.44-6.63,6.65-9.94.35-.53.66-1.06,1.46-.98,5.61.52,10.9-.85,16.11-2.72.13-.05.28-.04.46-.06-.11.58-.54.92-.84,1.32-11.35,14.91-22.24,30.13-32.24,45.98-2.05,3.25-3.84,6.65-4.97,10.35-.36,1.17-.66,2.35-.65,3.58.03,2.85,1.65,4.33,4.48,4.06,2.02-.19,3.86-.96,5.59-1.99,4.39-2.6,8.13-6.01,11.78-9.51,7.58-7.26,14.02-15.5,20.58-23.65,1.37-1.71,2.89-3.31,4.13-5.1.98-1.43,2.15-1.78,3.78-1.4-.16.7-.7,1.15-1.11,1.65-6.88,8.39-13.3,17.15-20.75,25.06-4.55,4.82-9.28,9.43-14.69,13.3-2.87,2.06-5.92,3.73-9.53,4.09-3.98.4-7.04-1.23-8.91-4.74-2.42-4.54-2.04-9.16-.49-13.85,1.12-3.38,2.53-6.62,4.09-9.81.25-.5.47-1.01.63-1.57-2.79,3-5.45,6.09-8.36,8.95-9.61,9.46-21.01,15.97-33.71,20.26-2.68.91-4.51,2.33-6.11,4.66-6.96,10.15-13.97,20.28-22.07,29.57-8.17,9.36-17.18,17.73-28.07,23.93-9.11,5.18-18.8,7.48-29.26,6.5-5.93-.56-10.99-2.76-14.7-7.6-.09-.11-.18-.23-.29-.33-.07-.06-.17-.09-.32-.17-3.24,5.86-8.02,9.98-14.29,12.6,10.28-28.04,11.49-55.48-3.94-82.45-1.33,1.77-2.49,3.29-3.64,4.82-7.76,10.26-16.12,20-25.26,29.05-15.12,14.96-32.12,27.18-51.94,35.21-14.26,5.78-29.09,9.09-44.45,10.05-11.98.75-23.91.46-35.81-1.2-17.83-2.48-34.04-8.73-47.69-20.76-11.16-9.84-18.05-22.1-19.78-36.95-1.92-16.46,2.26-31.52,11.76-44.97,11.47-16.23,27.07-27.01,45.79-33.36,13.04-4.43,26.55-6.28,40.26-6.81,11.61-.44,23.14.3,34.58,2.34.96.17,1.36.04,1.4-1.07.1-2.92.45-5.82,1.02-8.68.23-1.15-.12-1.37-1.23-1.35-11.65.25-23.26-.25-34.66-2.87-11.41-2.62-22.27-6.62-31.77-13.68-8.66-6.44-15.23-14.49-18.1-25.07-4.15-15.33-.46-28.91,10.04-40.59,8.76-9.75,20.06-15.3,32.69-17.98,20.08-4.27,39.16-1.51,56.81,9.32,5.83,3.57,10.2,8.5,13.01,14.77,2.09,4.67,1.23,9.37.37,14.08-.51,0-.52-.3-.61-.51-5.62-12.49-14.96-21.41-27.12-27.24-18.88-9.04-38.13-9.38-57.21-.65-11.64,5.33-20.46,13.79-24.3,26.32-4.65,15.18-1.28,28.73,9.64,40.28,7.66,8.11,17.37,12.8,27.78,16.24,11.9,3.93,24.19,5.25,36.65,5.33,2.53.01,5.06-.05,7.59-.02.74,0,1.12-.19,1.3-.97,5.1-21.86,16.46-40.19,32.17-55.88,17.66-17.65,38.58-29.74,63.05-35.25,11.48-2.59,23.12-3.23,34.77-1.04,7.11,1.34,13.85,3.75,19.2,8.86,5.87,5.6,7.92,12.4,5.66,20.34-2.21,7.76-6.96,13.78-12.77,19.16-8.71,8.05-18.81,13.92-29.39,19.05-24.85,12.06-51.02,19.83-78.23,24.31-7.83,1.29-15.68,2.3-23.59,2.85-.73.05-1.13.29-1.37,1-1.27,3.73-2.3,7.52-3.08,11.39-.26,1.3.13,1.64,1.29,1.92,11.95,2.88,23.41,7.12,34.4,12.62,7.66,3.84,14.99,8.26,21.91,13.32.97.71,1.67.73,2.71.18,12.17-6.42,23.02-14.7,33.29-23.77,17.98-15.88,34.42-33.23,49.49-51.9,15.58-19.3,33.49-36.02,54.77-48.98,18.23-11.11,37.94-18.13,59.1-20.77,22.8-2.85,45.02-.26,66.41,8.37,5.01,2.02,9.8,4.49,14.31,7.52-.71-.33-1.41-.65-2.12-.98-14.79-6.9-30.28-11.37-46.5-13.18-15.59-1.74-30.82.12-45.8,4.75-24.1,7.45-45.18,19.92-63.3,37.42-11.85,11.44-21.93,24.33-30.97,38.07-14.22,21.62-27.38,43.89-41.11,65.82-5.68,9.07-11.59,17.98-17.78,26.71-.61.87-.56,1.37.05,2.22,9.74,13.54,16.07,28.48,18.29,45.07.04.33.13.66.26,1.29ZM164.64,139.17c-8.25.04-16.94.86-25.55,2.57-17.15,3.41-32.11,11.02-44.44,23.49-12.96,13.11-20.46,28.8-21.81,47.28-.86,11.87,1.5,23.06,7.65,33.29,7.72,12.84,19.04,21.49,32.87,26.73,17.11,6.49,34.93,7.1,52.91,5.12,13.92-1.53,26.8-6.3,39.03-12.97,16.58-9.05,30.37-21.49,42.6-35.7,11.15-12.95,21.12-26.82,31.04-40.71.58-.81.46-1.29-.16-1.97-4.3-4.79-8.98-9.17-13.85-13.36-1.78-1.53-3.15-1.72-5.34-.73-11.28,5.12-22.98,7.32-35.35,4.6-9.36-2.06-17.19-6.3-22.45-14.6-3.56-5.62-5.49-11.77-5.98-18.38-.06-.81-.02-1.55-1.22-1.77-9.73-1.79-19.54-2.76-29.96-2.88ZM208.29,125.13c.73-.04,1.3-.04,1.87-.1,8.81-.88,17.56-2.12,26.28-3.67,27.7-4.91,54.13-13.6,79.15-26.51,9.48-4.89,18.27-10.71,25.68-18.49,4.05-4.25,7.32-8.94,8.94-14.66.89-3.15,1.1-6.3.28-9.5-1.61-6.28-5.88-10.15-11.59-12.63-10.02-4.34-20.5-4.6-31.09-3.09-10.91,1.56-21.01,5.54-30.63,10.79-14.19,7.74-26.51,17.88-37.53,29.61-11.02,11.72-20.41,24.63-27.51,39.12-1.43,2.91-2.75,5.88-3.85,9.12ZM387.87,221.04c-.68.09-.96.09-1.24.16-8.51,2.02-17.16,3.35-25.71,5.23-10.41,2.28-20.69,4.95-30.44,9.36-6.34,2.87-12.2,6.46-16.73,11.89-.56.67-.8,1.34-.78,2.24.18,6.11-.16,12.16-2.54,17.9-.3.72.03,1.21.4,1.73,2.12,3.07,4.95,5.24,8.56,6.2,6.17,1.64,12.33,1.54,18.34-.73,7.43-2.81,13.48-7.69,19.06-13.17,8.37-8.21,15.24-17.65,21.86-27.28,3.02-4.4,6.01-8.82,9.22-13.54ZM422.09,163.03c-.04-.57-.05-1.69-.18-2.8-.7-5.97-5.55-8.96-11.19-6.92-2.98,1.08-5.51,2.9-7.83,4.99-11.1,10.01-19.02,22.27-25.06,35.82-1.86,4.18-3.33,8.52-3.52,13.16-.17,4.37,2.15,6.44,6.46,5.78,3-.46,5.42-2.08,7.71-3.91,3.35-2.68,6.42-5.66,9.38-8.75,8.11-8.46,14.8-18.02,21.42-27.65,1.96-2.85,2.66-5.87,2.8-9.72ZM203.61,143.76c-.22,2.1-.17,4.04-.11,5.98.33,11.77,6.7,20.29,17.94,23.84,10.19,3.22,20.31,2.53,30.35-.77,2.84-.93,5.66-1.92,8.54-3.36-17.19-12.7-36.26-20.63-56.72-25.69ZM324.92,121.41c-18.33,18.13-36.89,35.93-59.95,48.38,5.75,4.48,11.02,9.16,16.03,14.11.57.57.81.4,1.19-.15,1.12-1.65,2.26-3.28,3.41-4.91,11.68-16.63,22.51-33.83,34.31-50.37,1.68-2.35,3.35-4.7,5.02-7.06Z"/>
    <path class="cls-1" d="M486.93,131.18c3.19,0,5.47,2.2,5.66,5.45.2,3.45-2.2,7.26-5.43,8.62-4.15,1.74-8.17-.75-8.43-5.24-.27-4.59,3.68-8.84,8.2-8.83Z"/>
    <path class="cls-1" d="M355.06,139.53c-.03-4.63,4.41-8.73,9.02-8.33,2.87.25,5.11,2.89,4.92,6.04-.21,3.59-2.02,6.31-5.23,7.87-4.33,2.11-8.67-.74-8.71-5.58Z"/>
  </g>
  <path class="cls-2" d="M13.56,320.33c6.62-.28,7.37-.75,7.37-5.5v-46.45c0-4.76-.75-5.22-7.37-5.5v-3.54h28.92c7.56,0,13.62.75,18.19,3.54,4.57,2.8,7.93,7.93,7.93,15.39,0,6.9-2.52,11.94-7.18,15.3-4.29,3.08-11.19,4.66-19.96,4.66h-5.6v16.6c0,4.76.75,5.22,8.96,5.69v3.36H13.56v-3.54ZM41.08,293.93c9.42,0,11.85-8.3,11.85-15.39,0-10.73-5.32-14.92-11.57-14.92-4.76,0-5.5.84-5.5,3.45v22.85c0,3.54,1.59,4.01,5.22,4.01Z"/>
  <path class="cls-2" d="M156.63,320.33c5.04-.28,6.06-.93,7.56-4.85,2.24-5.69,5.32-15.11,8.67-24.72l10.82-31.43h11.75l18.38,56.53c1.21,3.82,2.43,4.38,7.28,4.48v3.54h-29.48v-3.54l5.41-.56c1.96-.19,2.24-1.4,1.59-3.36l-4.85-15.48h-18.1c-1.68,5.5-3.36,10.54-4.48,15.58-.47,2.05-.37,3.17,1.68,3.36l5.6.47v3.54h-21.83v-3.54ZM192.27,296.45l-7.28-24.16h-.28l-7.56,24.16h15.11Z"/>
  <path class="cls-2" d="M228.17,320.33l3.27-.47c2.14-.28,3.08-1.68,3.36-4.94.37-3.27.47-6.9.47-14.55v-31.99c0-4.76-.75-5.22-7.37-5.5v-3.54h24.63c1.21,4.01,3.36,9.51,4.94,13.71l11.1,28.64h.28l7.93-21.83c2.52-6.9,5.69-16.04,7.28-20.52h24.25v3.54c-6.62.28-7.37.75-7.37,5.5v46.45c0,4.76.75,5.22,7.37,5.5v3.54h-28.92v-3.54c6.62-.28,7.37-.75,7.37-5.5v-46.26h-.28l-19.49,53.63h-5.6l-20.05-53.63h-.28v31.81c0,7.55.09,11.19.47,14.55.28,3.26,1.31,4.76,3.92,4.94l5.04.47v3.54h-22.29v-3.54Z"/>
  <path class="cls-2" d="M362.2,259.33h55.41v17.54h-3.54c-3.17-9.33-4.38-13.24-12.97-13.24h-3.73v51.39c0,3.36.65,4.76,3.64,4.94l5.32.37v3.54h-32.83v-3.54l5.32-.37c2.98-.19,3.64-1.59,3.64-4.94v-51.39h-3.73c-8.58,0-9.79,3.92-12.97,13.24h-3.54v-17.54Z"/>
  <path class="cls-2" d="M323.87,296.08h24.53v8.86h-24.53v-8.86Z"/>
  <path class="cls-2" d="M456.21,257.93c21.45,0,31.9,12.59,31.9,33.67s-10.45,33.67-31.9,33.67-31.9-12.59-31.9-33.67,10.45-33.67,31.9-33.67ZM456.21,320.98c13.71,0,15.39-18.1,15.39-29.38s-1.68-29.38-15.39-29.38-15.39,18.1-15.39,29.38,1.87,29.38,15.39,29.38Z"/>
  <path class="cls-2" d="M496.04,320.33l3.26-.47c2.15-.28,3.08-1.68,3.36-4.94.37-3.27.47-6.9.47-14.55v-31.99c0-4.76-.75-5.22-7.37-5.5v-3.54h22.11c9.61,14.83,19.5,29.57,29.38,44.4h.37v-20.89c0-7.65-.09-11.19-.47-14.55-.28-3.26-1.31-4.76-3.92-4.94l-5.22-.47v-3.54h22.48v3.54l-3.27.47c-2.15.28-3.08,1.68-3.36,4.94-.37,3.27-.47,6.9-.47,14.55v41.04h-10.26c-11.1-17.35-22.39-34.7-33.86-52.05h-.37v28.54c0,7.65.09,11.19.47,14.55.28,3.26,1.31,4.76,3.92,4.94l5.22.47v3.54h-22.48v-3.54Z"/>
</svg>