<?xml version="1.0" encoding="UTF-8"?>
<svg xmlns="http://www.w3.org/2000/svg" version="1.1" viewBox="0 0 56 56">
  <defs>
    <style>
      .cls-1 {
        fill: #494949;
      }
    </style>
  </defs>
  <!-- Generator: Adobe Illustrator 28.6.0, SVG Export Plug-In . SVG Version: 1.2.0 Build 709)  -->
  <g>
    <g id="Layer_1">
      <path class="cls-1" d="M2.4,4l1.7-1.7C5.5.9,7.6,0,9.7,0s4.2.9,5.7,2.4l33.6,33.6,6.7,17.4c.8,2.1-.3,3.1-2.3,2.3l-17.4-6.7L2.4,15.4C-.8,12.3-.8,7.2,2.4,4ZM23.5,12.9l-2.3,2.3,23.1,23.1,2.3-2.3L23.5,12.9ZM19.9,16.5l-3.4,3.4,23.1,23.1,3.4-3.4-23.1-23.1ZM47.6,51.6l4.1-4.1-3.9-10.2-10.3,10.3,10.2,3.9ZM36,46.6l2.3-2.3L15.2,21.1l-2.3,2.3,23.1,23.1ZM11.5,22.1l10.6-10.6-2.6-2.6-10.6,10.6,2.6,2.6Z"/>
    </g>
  </g>
</svg>