<svg width="56" height="56" viewBox="0 0 56 56" fill="none" xmlns="http://www.w3.org/2000/svg">
<path d="M2.36528 4.02873L4.02939 2.36362C5.54395 0.85016 7.59743 0 9.73853 0C11.8796 0 13.9331 0.85016 15.4477 2.36362L49.0753 35.9943L55.7402 53.4219C56.5223 55.4846 55.4779 56.5234 53.4218 55.7375L35.992 49.079L2.36528 15.4474C-0.790291 12.2964 -0.786558 7.1844 2.36528 4.02873ZM23.4855 12.8825L21.1447 15.2225L44.2575 38.3379L46.5983 35.9961L23.4855 12.8825ZM19.9071 16.461L16.4585 19.9107L39.5704 43.0252L43.019 39.5765L19.9071 16.461ZM47.5755 51.6326L51.628 47.5763L47.7071 37.3644L37.3668 47.7032L47.5755 51.6326ZM35.992 46.6046L38.3309 44.2629L15.2199 21.1483L12.8792 23.4901L35.992 46.6046ZM11.5305 22.1414L22.1377 11.5357L19.4992 8.89618L8.89201 19.5019L11.5305 22.1414Z" fill="black"/>
</svg>
