<?xml version="1.0" encoding="UTF-8"?>
<svg id="Layer_1" xmlns="http://www.w3.org/2000/svg" viewBox="0 0 150.49 134.79">
  <defs>
    <style>
      .cls-1 {
        fill: #2b2b2b;
        font-family: HelveticaNeue, 'Helvetica Neue';
        font-size: 18.37px;
      }
    </style>
  </defs>
  <text class="cls-1" transform="translate(22.53 103.54) rotate(-112.51)"><tspan x="0" y="0">S</tspan></text>
  <text class="cls-1" transform="translate(18 92.89) rotate(-100.69)"><tspan x="0" y="0">C</tspan></text>
  <text class="cls-1" transform="translate(15.61 80.21) rotate(-88.73)"><tspan x="0" y="0">R</tspan></text>
  <text class="cls-1" transform="translate(15.77 67.98) rotate(-76.38)"><tspan x="0" y="0">O</tspan></text>
  <text class="cls-1" transform="translate(19.13 54.76) rotate(-64.99)"><tspan x="0" y="0">L</tspan></text>
  <text class="cls-1" transform="translate(23.33 45.7) rotate(-55.4)"><tspan x="0" y="0">L</tspan></text>
  <text class="cls-1" transform="translate(29.19 37.49) rotate(-48.18)"><tspan x="0" y="0"> </tspan></text>
  <text class="cls-1" transform="translate(32.39 33.64) rotate(-40.81)"><tspan x="0" y="0">T</tspan></text>
  <text class="cls-1" transform="translate(40 26.79) rotate(-29.4)"><tspan x="0" y="0">O</tspan></text>
  <text class="cls-1" transform="translate(52.11 20.35) rotate(-20.42)"><tspan x="0" y="0"> </tspan></text>
  <text class="cls-1" transform="translate(56.71 18.41) rotate(-12.64)"><tspan x="0" y="0">V</tspan></text>
  <text class="cls-1" transform="translate(67.56 16.18) rotate(-5.08)"><tspan x="0" y="0">I</tspan></text>
  <text class="cls-1" transform="translate(72.15 15.56) rotate(2.36)"><tspan x="0" y="0">E</tspan></text>
  <text class="cls-1" transform="translate(83.04 15.63) rotate(15.52)"><tspan x="0" y="0">W</tspan></text>
  <text class="cls-1" transform="translate(98.98 20.59) rotate(25.94)"><tspan x="0" y="0"> </tspan></text>
  <text class="cls-1" transform="translate(103.56 22.54) rotate(33.98)"><tspan x="0" y="0">P</tspan></text>
  <text class="cls-1" transform="translate(113.21 28.96) rotate(45.36)"><tspan x="0" y="0">R</tspan></text>
  <text class="cls-1" transform="translate(121.88 37.58) rotate(57.68)"><tspan x="0" y="0">O</tspan></text>
  <text class="cls-1" transform="translate(129.02 49.21) rotate(68.7)"><tspan x="0" y="0">J</tspan></text>
  <text class="cls-1" transform="translate(132.48 57.84) rotate(78.5)"><tspan x="0" y="0">E</tspan></text>
  <text class="cls-1" transform="translate(134.69 68.47) rotate(89.07)"><tspan x="0" y="0">C</tspan></text>
  <text class="cls-1" transform="translate(134.71 81.45) rotate(100.94)"><tspan x="0" y="0">T</tspan></text>
  <text class="cls-1" transform="translate(132.85 91.55) rotate(111.52)"><tspan x="0" y="0">S</tspan></text>
</svg>