<?xml version="1.0" encoding="UTF-8"?>
<svg xmlns="http://www.w3.org/2000/svg" xmlns:xlink="http://www.w3.org/1999/xlink" version="1.1" viewBox="0 0 150.5 134.8">
  <defs>
    <style>
      .cls-1, .cls-2, .cls-3 {
        stroke: #2b2b2b;
        stroke-miterlimit: 10;
      }

      .cls-1, .cls-3 {
        fill: #2b2b2b;
        stroke-width: .2px;
      }

      .cls-4 {
        isolation: isolate;
      }

      .cls-2 {
        fill: #2b2b2b;
        stroke-width: .2px;
      }

      .cls-3 {
        font-family: HelveticaNeue, 'Helvetica Neue';
        font-size: 18px;
      }
    </style>
    <path id="path" d="M168.9-109.6c31.6,3.6,54.4,32.2,50.7,63.8S187.5,8.6,155.8,5c-31.6-3.6-54.4-32.2-50.7-63.8,3.6-31.6,32.2-54.4,63.8-50.7Z"/>
  </defs>
  <!-- Generator: Adobe Illustrator 28.6.0, SVG Export Plug-In . SVG Version: 1.2.0 Build 709)  -->
  <g>
    <g id="Layer_1">
      <g id="Layer_1-2" data-name="Layer_1">
        <g id="Layer_1-2">
          <g id="Layer_1-2-2" data-name="Layer_1-2">
            <g class="cls-4">
              <g class="cls-4">
                <path class="cls-2" d="M-111.4-20.7c-.2.7,0,1.5.3,2.3.1.3.3.7.5,1s.4.5.7.7.6.3.9.3.7,0,1.1-.2c.4-.2.6-.4.8-.7.1-.3.2-.7.2-1.1s0-.9-.2-1.4c0-.5-.2-1-.3-1.5,0-.5-.1-1.1-.2-1.6,0-.5,0-1,.1-1.5s.3-.9.6-1.3.8-.7,1.4-1c.6-.3,1.3-.4,1.8-.3.6,0,1.1.3,1.6.6.5.3.9.8,1.3,1.3s.7,1,.9,1.6c.3.7.5,1.4.5,2s0,1.3-.1,1.9c-.2.6-.4,1.1-.9,1.6s-1,.9-1.7,1.2l-.6-1.5c.5-.2.9-.5,1.2-.8.3-.4.5-.7.6-1.2.1-.4.1-.9,0-1.3,0-.5-.2-.9-.4-1.4-.1-.4-.3-.7-.6-1.1-.2-.3-.5-.6-.8-.8-.3-.2-.6-.4-1-.4s-.8,0-1.2.2-.7.4-.9.8c-.2.3-.3.7-.3,1.1s0,.9.1,1.4.2,1,.3,1.5c0,.5.2,1,.2,1.6v1.5c0,.5-.3.9-.5,1.3-.3.4-.7.7-1.2.9-.6.3-1.2.3-1.7.3s-1.1-.2-1.5-.5c-.5-.3-.9-.7-1.2-1.1-.4-.5-.7-1-.9-1.5-.3-.6-.4-1.2-.5-1.8v-1.7c0-.5.4-1,.8-1.4s.9-.8,1.6-1.1l.6,1.5c-.8.5-1.3,1-1.5,1.7h0Z"/>
              </g>
            </g>
            <g class="cls-4">
              <g class="cls-4">
                <path class="cls-2" d="M-115.2-35.4c-.3.7-.4,1.6-.2,2.5,0,.8.4,1.4.8,1.9s.9.9,1.4,1.1c.6.3,1.2.4,1.8.5h2c.7,0,1.4-.4,2-.6.6-.3,1.1-.7,1.6-1.1.4-.4.7-1,.9-1.6s.2-1.3,0-2.1c-.1-.6-.3-1-.6-1.5-.3-.4-.6-.7-1-1s-.8-.4-1.3-.5h-1.5l-.3-1.7c1.7,0,3,.2,4.1,1s1.8,2,2.1,3.6c.2,1,.2,1.9,0,2.7-.2.8-.6,1.5-1.1,2.1s-1.1,1.1-1.9,1.5c-.8.4-1.6.7-2.6.9s-1.8.2-2.7,0c-.9,0-1.7-.4-2.4-.8-.7-.4-1.3-.9-1.8-1.6s-.8-1.5-1-2.5c0-.7-.2-1.3,0-2,0-.6.2-1.2.5-1.8.3-.6.6-1,1.1-1.4s1-.7,1.7-1l.3,1.7c-.9.4-1.5.9-1.8,1.7h-.1Z"/>
              </g>
            </g>
            <g class="cls-4">
              <g class="cls-4">
                <path class="cls-2" d="M-110-49.7c0-.2.3-.4.5-.6.3,0,.5-.3.8-.3.3-.2.6-.2.9-.2h2.7c.2,0,.4,0,.6-.2v-1.9c-.3.2-.5.4-.8.4s-.6.2-.9.2h-2.9c-.3,0-.6.2-.8.3l-.6.6c-.2.2-.4.5-.4.9-.2-.8-.6-1.4-1.2-1.8-.6-.4-1.3-.6-2.1-.6s-1.9.3-2.5,1-1,1.7-1,2.9l-.2-.2h0v6.1l13.2.3v-1.7h-5.5v-4.4c0-.4,0-.7.2-1h0v.2ZM-111.8-44.4h-4.5v-4.4c0-.9.3-1.4.7-1.8.4-.3.9-.5,1.6-.5s.9,0,1.2.3c.3.2.5.4.7.7.1.3.3.6.3,1v4.7Z"/>
              </g>
            </g>
            <g class="cls-4">
              <g class="cls-4">
                <path class="cls-2" d="M-113.3-56.4c-.7-.5-1.4-1-1.9-1.7s-.8-1.4-1-2.3c-.2-.9-.2-1.8,0-2.8.2-1,.6-1.9,1.2-2.5.6-.7,1.2-1.2,1.9-1.6.7-.4,1.5-.6,2.4-.6s1.7,0,2.6.2,1.7.5,2.4,1,1.4,1,1.9,1.7.8,1.4,1,2.3c.2.8.1,1.8,0,2.8s-.6,1.9-1.2,2.5c-.5.7-1.2,1.2-1.9,1.6s-1.5.6-2.4.6-1.7,0-2.6-.2c-.9-.2-1.7-.5-2.4-1ZM-108.5-56.9c.7,0,1.3,0,1.9-.4s1.1-.6,1.5-1.1.8-1.1.9-1.9.2-1.5,0-2.1c-.2-.6-.5-1.2-.9-1.7s-.9-.9-1.5-1.2-1.2-.6-1.8-.7c-.6-.2-1.3-.2-2-.2s-1.3,0-1.9.4c-.6.2-1.1.6-1.5,1.1s-.8,1.1-.9,1.9-.2,1.5,0,2.1.5,1.2.9,1.7.9.9,1.5,1.2c.6.3,1.2.6,1.8.7.6.2,1.3.2,2,.2Z"/>
              </g>
            </g>
            <g class="cls-4">
              <g class="cls-4">
                <path class="cls-2" d="M-111.8-74.9l10.6,4.9,2.9-6.3,1.3.6-3.7,7.9-11.9-5.5.7-1.6s.1,0,.1,0Z"/>
              </g>
            </g>
            <g class="cls-4">
              <g class="cls-4">
                <path class="cls-2" d="M-106.1-85.6l9.6,6.6,3.9-5.7,1.2.8-4.9,7.2-10.8-7.4,1-1.4h0Z"/>
              </g>
            </g>
            <g class="cls-4">
              <g class="cls-4">
                <path class="cls-2" d="M-95.6-96.4l-1-1.1,7.9-6.9,1,1.1-3.3,2.9,7.6,8.8-1.3,1.1-7.6-8.8s-3.3,2.9-3.3,2.9Z"/>
              </g>
            </g>
            <g class="cls-4">
              <g class="cls-4">
                <path class="cls-2" d="M-83.9-102.9c-.2-.9-.2-1.7,0-2.5s.5-1.6,1-2.3,1.2-1.3,2.1-1.8c.9-.5,1.8-.8,2.7-.8s1.7,0,2.5.4c.8.3,1.5.7,2.1,1.3s1.2,1.3,1.6,2.1c.4.8.7,1.6.9,2.4.2.9.2,1.7,0,2.5,0,.8-.5,1.6-1,2.3-.5.7-1.2,1.3-2.1,1.8-.9.5-1.8.8-2.7.9-.9,0-1.7,0-2.5-.4-.8-.3-1.5-.7-2.1-1.3-.6-.6-1.2-1.3-1.6-2.1-.4-.8-.7-1.6-.9-2.4h0ZM-80.3-99.7c.5.5,1,.8,1.6,1.1.6.3,1.2.4,1.8.4s1.3-.2,2-.6,1.2-.9,1.6-1.4c.3-.6.6-1.1.6-1.8v-1.9c-.2-.6-.4-1.3-.7-1.8-.3-.6-.7-1.1-1.2-1.6s-1-.8-1.6-1.1-1.2-.4-1.8-.4-1.3.2-2,.6-1.2.9-1.6,1.4c-.3.6-.6,1.1-.6,1.8v1.9c.2.6.4,1.3.7,1.8.3.6.7,1.1,1.2,1.6Z"/>
              </g>
            </g>
            <g class="cls-4">
              <g class="cls-4">
                <polygon class="cls-2" points="-57.5 -117.6 -58.7 -105.7 -64.8 -116 -66.6 -115.6 -59.2 -103.8 -57.4 -104.2 -55.7 -118 -57.5 -117.6"/>
              </g>
            </g>
            <g class="cls-4">
              <g class="cls-4">
                <path class="cls-2" d="M-50.8-118.4l1.2,13.1-1.7.2-1.2-13.1,1.7-.2Z"/>
              </g>
            </g>
            <g class="cls-4">
              <g class="cls-4">
                <path class="cls-2" d="M-37.2-116.8v-1.4h-.2l-9-.4-.5,13.1,9.2.4v-1.5l-7.4-.3.2-4.5,6.9.3v-1.5l-6.8-.3.2-4.2s7.4.3,7.4.3Z"/>
              </g>
            </g>
            <g class="cls-4">
              <g class="cls-4">
                <path class="cls-2" d="M-26.3-102.5v-11.4h0l-5.9,9.8-1.8-.5.3-13.5,1.7.5-.4,11.2h0l5.8-9.7,1.8.5v11.3h0l5.5-9.8,1.7.5-6.9,11.7-1.8-.5h0Z"/>
              </g>
            </g>
            <g class="cls-4">
              <g class="cls-4">
                <path class="cls-2" d="M-3.6-105.5c1.1.7,1.7,1.6,1.9,2.5s0,1.9-.8,2.9c-.7,1-1.5,1.6-2.4,1.8-.9.2-2,0-3.1-.8l-3.3-2.2-3,4.4-1.4-1,7.3-10.9,4.8,3.2h0ZM-7.6-100.6c.8.6,1.5.8,2.1.7.6,0,1.1-.5,1.6-1.1.4-.6.6-1.3.4-1.9s-.6-1.2-1.5-1.7l-2.8-1.9-2.7,4,2.8,1.9h0Z"/>
              </g>
            </g>
            <g class="cls-4">
              <g class="cls-4">
                <path class="cls-2" d="M7.5-96.1c0-.1-.2-.3-.2-.4l-4.1-4.2-9.3,9.2,1.2,1.2,4-3.9,3,3c.3.3.6.6.6.9v.8c0,.3-.2.5-.3.8,0,.3-.3.5-.5.8s-.4.6-.6.8c-.2.3-.4.5-.6.7s-.4.4-.5.6C0-85.6,0-85.4,0-85.2l1.4,1.4c0-.3.2-.5.3-.8,0-.3.3-.5.5-.8.2-.2.4-.5.6-.7.3-.2.5-.5.7-.7.2-.3.4-.5.5-.8,0-.3.3-.5.3-.8v-.8c0-.2-.2-.6-.4-.9.7.4,1.4.6,2.1.4s1.3-.5,1.9-1.1c.7-.7,1.1-1.6,1-2.5,0-.9-.5-1.8-1.4-2.7h0ZM6.4-91.8c-.3.3-.7.6-1,.6h-1c-.3,0-.6-.2-.9-.4h0c-.3-.2-.6-.4-.9-.7L0-94.9l3.3-3.2,3,3.1c.6.6.8,1.1.8,1.7s-.3,1-.8,1.5h0Z"/>
              </g>
            </g>
            <g class="cls-4">
              <g class="cls-4">
                <path class="cls-2" d="M9.8-87.6c.8-.2,1.7-.3,2.5-.2s1.6.4,2.3.8c.7.5,1.4,1.1,1.9,2,.6.9.9,1.8,1,2.6,0,.9,0,1.7-.2,2.5-.3.8-.7,1.5-1.2,2.2-.6.7-1.2,1.2-2,1.7s-1.6.8-2.4,1c-.8.2-1.7.3-2.5.2s-1.6-.4-2.3-.9-1.4-1.1-1.9-2-.9-1.8-1-2.6c0-.9,0-1.7.2-2.5.3-.8.7-1.5,1.2-2.2.6-.7,1.2-1.2,2-1.7.8-.5,1.6-.8,2.4-1h0ZM6.8-83.8c-.5.5-.8,1-1,1.6s-.3,1.2-.3,1.9.3,1.3.7,2c.4.7.9,1.2,1.5,1.5.6.3,1.2.5,1.8.5s1.3,0,1.9-.2c.6-.2,1.2-.5,1.8-.8s1.1-.8,1.5-1.3c.5-.5.8-1,1-1.6s.3-1.2.3-1.9-.3-1.3-.7-2-.9-1.2-1.5-1.5-1.2-.5-1.8-.5-1.3,0-1.9.2c-.6.2-1.2.5-1.8.8s-1.1.8-1.5,1.3Z"/>
              </g>
            </g>
            <g class="cls-4">
              <g class="cls-4">
                <path class="cls-2" d="M13.3-65.3c-.4,0-.9,0-1.3-.2s-.8-.4-1.2-.8c-.4-.4-.7-.9-1-1.6-.4-1.1-.5-2.1-.1-3,.4-.8,1.1-1.5,2.3-2l.8-.3.6,1.6-.5.2c-.4,0-.7.3-.9.5s-.5.4-.7.6c-.2.2-.3.5-.3.8s0,.7.2,1.1c.3.7.7,1.2,1.2,1.3s1.1,0,1.8-.2l8.9-3.5.6,1.6-9.2,3.6c-.4.2-.8.3-1.3.3h0Z"/>
              </g>
            </g>
            <g class="cls-4">
              <g class="cls-4">
                <path class="cls-2" d="M27-55.7l-1.4.3-1.5-7.2-4.1.8,1.4,6.7-1.4.3-1.4-6.7-4.4.9,1.5,7.2-1.4.3-1.8-8.9,12.9-2.6,1.8,8.9h-.2Z"/>
              </g>
            </g>
            <g class="cls-4">
              <g class="cls-4">
                <path class="cls-2" d="M25.7-43.6c.5-.7.7-1.5.7-2.4s-.2-1.5-.5-2-.7-1-1.2-1.4-1.1-.6-1.7-.8c-.6-.2-1.3-.2-2-.2s-1.5,0-2.1.3c-.7.2-1.2.5-1.7.8s-.9.8-1.2,1.4-.4,1.2-.4,2,.1,1.1.3,1.5.5.8.8,1.1c.3.3.7.6,1.2.7.5.2,1,.3,1.5.3v1.7c-1.6,0-2.9-.7-3.9-1.6-.9-1-1.4-2.3-1.4-3.9s.1-1.9.5-2.7c.3-.8.8-1.4,1.4-1.9.6-.5,1.3-.9,2.1-1.2.8-.3,1.7-.4,2.7-.4s1.9,0,2.7.4,1.6.6,2.2,1.1c.6.5,1.1,1.2,1.5,1.9s.6,1.7.6,2.7,0,1.3-.2,2c-.2.6-.4,1.2-.8,1.6-.3.5-.8.9-1.3,1.2-.5.3-1.1.5-1.8.7v-1.7c.9-.2,1.6-.7,2-1.3h0Z"/>
              </g>
            </g>
            <g class="cls-4">
              <g class="cls-4">
                <path class="cls-2" d="M25.7-37.5l1.4.3-2,10.3-1.4-.3.8-4.3-11.4-2.2.3-1.7,11.4,2.2.8-4.3h0Z"/>
              </g>
            </g>
            <g class="cls-4">
              <g class="cls-4">
                <path class="cls-2" d="M20.1-18.1c.6-.4,1.1-1,1.4-1.8.1-.3.2-.7.3-1v-1c0-.3-.2-.6-.4-.9s-.5-.5-.9-.6-.7-.2-1,0c-.3,0-.6.4-.9.7-.3.3-.6.7-.9,1.1-.3.4-.6.9-.9,1.3-.3.4-.6.9-1,1.3-.3.4-.7.7-1.1,1-.4.3-.9.4-1.3.5-.5,0-1,0-1.6-.3s-1.1-.6-1.5-1.1-.6-1-.7-1.6c-.1-.6-.1-1.2,0-1.8,0-.6.2-1.2.5-1.8.3-.7.6-1.3,1-1.8s.9-1,1.4-1.3,1.1-.5,1.8-.6c.6,0,1.3,0,2.1.4l-.6,1.5c-.5-.2-1-.3-1.4-.2-.4,0-.9.2-1.2.4-.4.2-.7.5-1,.9s-.5.8-.7,1.3c-.1.4-.3.7-.3,1.1v1.1c0,.4.2.7.4,1s.5.5,1,.7c.4.2.8.2,1.2,0,.3,0,.7-.3,1-.6.3-.3.6-.7.9-1.1.3-.4.6-.9.9-1.3.3-.4.6-.9.9-1.3.3-.4.7-.8,1.1-1,.4-.3.8-.5,1.3-.5s1,0,1.5.2c.6.2,1.1.6,1.5,1s.6.9.7,1.4c.1.5.2,1.1,0,1.7,0,.6-.2,1.2-.4,1.7-.2.6-.5,1.2-.9,1.7s-.8.9-1.3,1.1c-.5.3-1,.4-1.6.5-.6,0-1.2,0-1.9-.3l.6-1.5c.9.3,1.7.2,2.3-.2h-.3Z"/>
              </g>
            </g>
          </g>
        </g>
      </g>
      <text>
        <textPath startOffset="94.7%" xlink:href="#path"><tspan class="cls-3"><tspan x="0" y="0">SCROLL TO VIEW WORK</tspan></tspan>
        </textPath></text>
      <g>
        <path class="cls-1" d="M6.8,74.8c-.4.6-.6,1.3-.5,2.2,0,.4,0,.7.2,1.1,0,.3.2.6.4.9.2.3.4.5.7.6.3.2.6.2,1.1.2.4,0,.7-.1.9-.4.2-.2.4-.6.6-1s.2-.8.3-1.3.2-1,.3-1.5c0-.5.2-1,.4-1.5.1-.5.3-.9.6-1.4.3-.4.6-.7,1-1,.4-.3.9-.4,1.6-.4.7,0,1.3,0,1.8.4.5.3.9.7,1.2,1.1.3.5.6,1,.7,1.6s.3,1.2.3,1.8c0,.7,0,1.4-.2,2.1-.2.6-.4,1.2-.7,1.7-.3.5-.8.9-1.4,1.2-.6.3-1.2.5-2,.5v-1.6c.5,0,.9-.2,1.3-.4.4-.2.7-.5.9-.9.2-.4.4-.8.5-1.2.1-.5.1-.9.1-1.4,0-.4,0-.8-.2-1.2,0-.4-.2-.7-.4-1-.2-.3-.4-.5-.7-.7-.3-.2-.7-.3-1.2-.2-.4,0-.8.2-1.1.4-.3.2-.5.6-.6,1-.2.4-.3.8-.4,1.3,0,.5-.2,1-.3,1.5,0,.5-.2,1-.3,1.5-.1.5-.3.9-.5,1.3s-.5.7-.9,1c-.4.3-.9.4-1.5.4-.6,0-1.2,0-1.7-.3s-.9-.6-1.2-1-.6-.9-.8-1.5-.3-1.1-.3-1.7c0-.7,0-1.3.2-1.8.1-.6.4-1.1.7-1.5.3-.4.7-.8,1.2-1.1.5-.3,1.1-.4,1.8-.5v1.6c-.8.1-1.5.5-1.9,1.1Z"/>
        <path class="cls-1" d="M8.1,60.3c-.6.6-.9,1.3-1,2.2-.1.8,0,1.4.1,2,.2.6.5,1.1.9,1.5.4.4.9.8,1.5,1,.6.3,1.2.4,1.9.6.7.1,1.4.1,2.1,0,.7,0,1.3-.2,1.8-.5.5-.3,1-.7,1.4-1.2.4-.5.6-1.1.7-1.9,0-.6,0-1.1,0-1.5-.1-.5-.3-.9-.6-1.2-.3-.4-.6-.7-1-.9-.4-.2-.9-.4-1.4-.6l.3-1.7c1.6.4,2.7,1.2,3.5,2.2.7,1.1,1,2.4.7,4.1-.2,1-.5,1.8-.9,2.5-.5.7-1,1.2-1.7,1.6s-1.4.6-2.3.8c-.8.1-1.7,0-2.7,0-.9-.1-1.8-.4-2.5-.8-.8-.4-1.4-.9-1.9-1.5-.5-.6-.9-1.3-1.1-2.1-.2-.8-.3-1.7-.1-2.7.1-.7.3-1.3.6-1.8.3-.6.6-1.1,1-1.5.4-.4.9-.7,1.5-1,.6-.2,1.2-.3,1.9-.3l-.3,1.7c-.9,0-1.7.4-2.2.9Z"/>
        <path class="cls-1" d="M10.2,47.3c.4-1.1,1.1-1.9,1.9-2.4.8-.4,1.7-.5,2.7,0,.7.3,1.3.7,1.7,1.2.4.5.6,1.2.5,2h0c.2-.3.4-.5.7-.7.2-.2.5-.3.8-.3.3,0,.5,0,.8,0,.3,0,.6.1.9.2.3,0,.6.2.9.3.3.1.6.2.9.3.3,0,.6.1.9.1.3,0,.6,0,.8-.1l-.7,1.8c-.2,0-.4,0-.6,0-.2,0-.5-.1-.7-.2s-.6-.2-.9-.3-.6-.2-.9-.2c-.3,0-.6-.1-.9-.2s-.6,0-.8,0c-.3,0-.5.2-.7.4-.2.2-.4.5-.5.9l-1.5,3.9,5.1,2-.6,1.6-12-4.6,2.2-5.6ZM15.7,49c0-.4,0-.7,0-1,0-.3-.2-.6-.4-.9-.2-.3-.5-.5-1-.6-.6-.2-1.2-.3-1.7,0-.5.2-.9.7-1.2,1.4l-1.5,4,4.2,1.6,1.3-3.3c.1-.4.2-.7.3-1.1Z"/>
        <path class="cls-1" d="M16.7,42c-.5-.7-.9-1.4-1.2-2.2s-.3-1.6-.2-2.4c.1-.8.4-1.7,1-2.5.6-.9,1.2-1.5,1.9-1.9.7-.4,1.5-.7,2.3-.8.8,0,1.6,0,2.4.2.8.2,1.6.6,2.3,1.1.7.5,1.4,1.1,1.9,1.7s.9,1.4,1.2,2.2c.2.8.3,1.6.2,2.4-.1.8-.5,1.7-1,2.5-.6.9-1.2,1.5-1.9,1.9-.7.4-1.5.7-2.3.8-.8,0-1.6,0-2.4-.2-.8-.2-1.6-.6-2.3-1.1-.7-.5-1.4-1.1-1.9-1.7ZM21.3,43.1c.6.2,1.2.3,1.9.3.6,0,1.2-.2,1.8-.5.6-.3,1.1-.8,1.5-1.4.4-.7.7-1.3.7-1.9,0-.6,0-1.2-.3-1.8-.2-.6-.6-1.1-1-1.6-.4-.5-.9-.9-1.5-1.3-.5-.4-1.1-.6-1.7-.8s-1.2-.3-1.9-.3-1.2.2-1.8.5c-.6.3-1.1.8-1.5,1.4-.4.7-.7,1.3-.7,1.9,0,.6,0,1.2.3,1.8.2.6.6,1.1,1,1.6.4.5.9.9,1.5,1.3.5.4,1.1.6,1.7.8Z"/>
        <path class="cls-1" d="M23.9,25.7l8.1,8,4.8-4.9,1,1-6,6.1-9.2-9,1.2-1.2Z"/>
        <path class="cls-1" d="M32.5,17.8l6.7,9.2,5.5-4,.8,1.2-6.9,5-7.6-10.4,1.4-1Z"/>
        <path class="cls-1" d="M45.2,11.5l-.5-1.3,9.5-3.8.5,1.3-4,1.6,4.2,10.6-1.6.6-4.2-10.6-4,1.6Z"/>
        <path class="cls-1" d="M57.8,9.2c.1-.8.4-1.6.8-2.3.4-.7.9-1.3,1.6-1.8.7-.5,1.5-.8,2.5-1,1-.2,1.9-.2,2.7,0s1.5.6,2.2,1.1c.6.5,1.1,1.2,1.5,1.9.4.8.7,1.6.8,2.4.2.9.2,1.7,0,2.6s-.4,1.6-.8,2.3c-.4.7-.9,1.3-1.6,1.8-.7.5-1.5.8-2.5,1-1,.2-1.9.2-2.7,0-.8-.2-1.5-.6-2.2-1.1-.6-.5-1.1-1.2-1.5-1.9s-.7-1.6-.8-2.4-.2-1.7,0-2.6ZM60.2,13.3c.3.6.6,1.1,1.1,1.5.4.4,1,.7,1.6.9s1.3.2,2.1,0c.8-.1,1.4-.4,1.9-.8.5-.4.9-.9,1.1-1.4.3-.6.4-1.2.5-1.8,0-.6,0-1.3,0-1.9-.1-.6-.3-1.3-.6-1.8-.3-.6-.6-1.1-1.1-1.5-.4-.4-1-.7-1.6-.9-.6-.2-1.3-.2-2.1,0s-1.4.4-1.9.8c-.5.4-.9.9-1.1,1.4-.3.6-.4,1.2-.5,1.8,0,.7,0,1.3,0,1.9.1.6.3,1.3.6,1.8Z"/>
        <path class="cls-1" d="M80.5,16.3l-3.2-13.2,1.8.2,2.6,11.4h0s4.8-10.7,4.8-10.7l1.8.2-5.8,12.3-1.9-.2Z"/>
        <path class="cls-1" d="M92.7,5.3l-3,12.5-1.7-.4,3-12.5,1.7.4Z"/>
        <path class="cls-1" d="M105,9.4l-.5,1.3-6.7-2.5-1.4,3.8,6.2,2.4-.5,1.3-6.2-2.4-1.6,4.2,6.8,2.6-.5,1.3-8.4-3.2,4.5-12,8.3,3.1Z"/>
        <path class="cls-1" d="M110.1,27.4l3.6-10.6h0s-8.5,7.3-8.5,7.3l-1.5-1,4.4-12.5,1.5,1-3.9,10.3h0s8.3-7.3,8.3-7.3l1.5,1-3.6,10.5h0s8.1-7.4,8.1-7.4l1.4,1-10,8.8-1.5-1Z"/>
        <path class="cls-1" d="M124.1,42.4l7.1-8.7h0s-10.5,3.9-10.5,3.9l-1-1.4,8.5-10.2,1,1.4-7.2,8.3h0s10.4-3.9,10.4-3.9l1.1,1.5-7,8.6h0s10.2-4.1,10.2-4.1l1,1.4-12.4,4.7-1-1.4Z"/>
        <path class="cls-1" d="M135.5,44c.8,0,1.7,0,2.4.3.8.3,1.5.7,2.1,1.2.6.6,1.1,1.3,1.5,2.3.4.9.5,1.8.5,2.7s-.3,1.6-.7,2.3c-.4.7-.9,1.3-1.6,1.9-.7.5-1.4,1-2.2,1.3-.8.3-1.6.5-2.5.6-.8,0-1.7,0-2.4-.3-.8-.3-1.5-.7-2.1-1.3-.6-.6-1.1-1.3-1.5-2.3-.4-.9-.5-1.8-.5-2.7,0-.8.3-1.6.7-2.3.4-.7.9-1.3,1.6-1.9.7-.5,1.4-1,2.2-1.3.8-.3,1.6-.5,2.5-.6ZM131.9,47.1c-.5.4-1,.8-1.3,1.4-.3.5-.5,1.1-.6,1.7,0,.6,0,1.3.3,2,.3.7.7,1.3,1.2,1.7.5.4,1,.7,1.6.8.6.2,1.2.2,1.9.1s1.3-.2,1.9-.5c.6-.2,1.2-.5,1.7-.9.5-.4,1-.8,1.3-1.4.3-.5.5-1.1.6-1.7,0-.6,0-1.3-.3-2-.3-.7-.7-1.3-1.2-1.7-.5-.4-1-.7-1.6-.8-.6-.2-1.2-.2-1.9-.1-.6,0-1.3.2-1.9.5-.6.2-1.2.5-1.7.9Z"/>
        <path class="cls-1" d="M145.4,63.8c.2,1.2,0,2.2-.4,3-.5.8-1.2,1.2-2.3,1.4-.8.1-1.5,0-2.1-.2-.6-.3-1.1-.8-1.5-1.5h0c0,.4,0,.7-.2,1-.1.3-.3.5-.5.6-.2.2-.5.3-.7.4-.3.1-.6.2-.9.3-.3,0-.6.1-.9.2-.3,0-.6.1-.9.2-.3,0-.6.2-.8.3-.3.1-.5.3-.7.5l-.3-1.9c.1-.1.3-.2.5-.3.2,0,.5-.1.7-.2.3,0,.6-.1.9-.2.3,0,.6-.1.9-.3.3,0,.6-.2.8-.3.3-.1.5-.3.7-.5.2-.2.3-.4.4-.7,0-.3,0-.6,0-1l-.7-4.1-5.4.9-.3-1.7,12.7-2,1,6ZM139.7,65.1c.1.3.3.6.5.9s.5.4.8.5.7.1,1.2,0c.6-.1,1.1-.4,1.5-.8.3-.4.5-1,.3-1.8l-.7-4.2-4.4.7.6,3.5c0,.4.2.8.3,1.1Z"/>
        <path class="cls-1" d="M146.1,73.8l-6.4-.3,6.1,6.8v2.2c0,0-5-5.6-5-5.6l-7.9,5.3v-2.2c0,0,6.8-4.4,6.8-4.4l-1.9-2.2-4.5-.2v-1.7c0,0,12.9.5,12.9.5v1.7Z"/>
      </g>
    </g>
  </g>
</svg>