<?xml version="1.0" encoding="UTF-8"?>
<svg xmlns="http://www.w3.org/2000/svg" version="1.1" viewBox="0 0 150.5 134.8">
  <defs>
    <style>
      .cls-1 {
        fill: #2b2b2b;
      }

      .cls-2 {
        isolation: isolate;
      }
    </style>
  </defs>
  <!-- Generator: Adobe Illustrator 28.6.0, SVG Export Plug-In . SVG Version: 1.2.0 Build 709)  -->
  <g>
    <g id="Layer_1">
      <g class="cls-2">
        <g class="cls-2">
          <path class="cls-1" d="M9,100.5c-.2.7,0,1.5.3,2.3.1.3.3.7.5,1,.2.3.4.5.7.7.3.2.6.3.9.3.3,0,.7,0,1.1-.2.4-.2.6-.4.8-.7.1-.3.2-.7.2-1.1,0-.4,0-.9-.2-1.4,0-.5-.2-1-.3-1.5,0-.5-.1-1.1-.2-1.6,0-.5,0-1,.1-1.5.1-.5.3-.9.6-1.3.3-.4.8-.7,1.4-1,.6-.3,1.3-.4,1.8-.3.6,0,1.1.3,1.6.6.5.3.9.8,1.3,1.3.4.5.7,1,.9,1.6.3.7.5,1.4.5,2,0,.7,0,1.3-.1,1.9-.2.6-.4,1.1-.9,1.6s-1,.9-1.7,1.2l-.6-1.5c.5-.2.9-.5,1.2-.8.3-.4.5-.7.6-1.2.1-.4.1-.9,0-1.3,0-.5-.2-.9-.4-1.4-.1-.4-.3-.7-.6-1.1-.2-.3-.5-.6-.8-.8-.3-.2-.6-.4-1-.4-.4,0-.8,0-1.2.2-.4.2-.7.4-.9.8-.2.3-.3.7-.3,1.1,0,.4,0,.9.1,1.4s.2,1,.3,1.5c0,.5.2,1,.2,1.6,0,.5,0,1,0,1.5,0,.5-.3.9-.5,1.3-.3.4-.7.7-1.2.9-.6.3-1.2.3-1.7.3-.5,0-1.1-.2-1.5-.5-.5-.3-.9-.7-1.2-1.1-.4-.5-.7-1-.9-1.5-.3-.6-.4-1.2-.5-1.8,0-.6,0-1.2.1-1.7.1-.5.4-1,.8-1.4s.9-.8,1.6-1.1l.6,1.5c-.8.5-1.3,1-1.5,1.7Z"/>
        </g>
      </g>
      <g class="cls-2">
        <g class="cls-2">
          <path class="cls-1" d="M5.2,85.8c-.3.7-.4,1.6-.2,2.5.1.8.4,1.4.8,1.9.4.5.9.9,1.4,1.1.6.3,1.2.4,1.8.5.7,0,1.3,0,2-.1.7-.1,1.4-.4,2-.6.6-.3,1.1-.7,1.6-1.1.4-.4.7-1,.9-1.6.2-.6.2-1.3,0-2.1-.1-.6-.3-1-.6-1.5-.3-.4-.6-.7-1-1-.4-.3-.8-.4-1.3-.5-.5,0-1-.1-1.5,0l-.3-1.7c1.7-.1,3,.2,4.1,1,1.1.8,1.8,2,2.1,3.6.2,1,.2,1.9,0,2.7-.2.8-.6,1.5-1.1,2.1-.5.6-1.1,1.1-1.9,1.5-.8.4-1.6.7-2.6.9s-1.8.2-2.7.1c-.9-.1-1.7-.4-2.4-.8-.7-.4-1.3-.9-1.8-1.6-.5-.7-.8-1.5-1-2.5-.1-.7-.2-1.3,0-2,0-.6.2-1.2.5-1.8s.6-1,1.1-1.4c.5-.4,1-.7,1.7-1l.3,1.7c-.9.4-1.5.9-1.8,1.7Z"/>
        </g>
      </g>
      <g class="cls-2">
        <g class="cls-2">
          <path class="cls-1" d="M2.7,72.3c0-1.2.4-2.2,1-2.9.6-.7,1.5-1,2.5-1,.8,0,1.5.2,2.1.6.6.4,1,1,1.2,1.8h0c0-.4.2-.7.4-.9.2-.2.4-.4.6-.6.2-.1.5-.2.8-.3.3,0,.6-.1.9-.1.3,0,.6,0,1,0,.3,0,.7,0,1,0,.3,0,.6-.1.9-.2.3,0,.5-.2.8-.4v1.9c-.2.1-.4.2-.6.2-.2,0-.5,0-.8,0-.3,0-.6,0-.9,0-.3,0-.7,0-1,0-.3,0-.6,0-.9.2-.3,0-.5.2-.8.3-.2.2-.4.4-.5.6-.1.3-.2.6-.2,1v4.3c0,0,5.5.1,5.5.1v1.7s-13.2-.3-13.2-.3v-6.2ZM8.6,72.1c0-.4-.2-.7-.3-1-.2-.3-.4-.5-.7-.7s-.7-.3-1.2-.3c-.7,0-1.2.2-1.6.5-.4.4-.6.9-.7,1.8v4.3c0,0,4.5.1,4.5.1v-3.6c0-.4,0-.8,0-1.2Z"/>
        </g>
      </g>
      <g class="cls-2">
        <g class="cls-2">
          <path class="cls-1" d="M7.1,64.8c-.7-.5-1.4-1-1.9-1.7-.5-.7-.8-1.4-1-2.3-.2-.9-.2-1.8,0-2.8s.6-1.9,1.2-2.5c.6-.7,1.2-1.2,1.9-1.6.7-.4,1.5-.6,2.4-.6.9,0,1.7,0,2.6.2.9.2,1.7.5,2.4,1,.7.5,1.4,1,1.9,1.7.5.7.8,1.4,1,2.3.2.8.1,1.8,0,2.8s-.6,1.9-1.2,2.5c-.5.7-1.2,1.2-1.9,1.6-.7.4-1.5.6-2.4.6-.9,0-1.7,0-2.6-.2-.9-.2-1.7-.5-2.4-1ZM11.9,64.3c.7,0,1.3-.1,1.9-.4s1.1-.6,1.5-1.1c.4-.5.8-1.1.9-1.9s.2-1.5,0-2.1c-.2-.6-.5-1.2-.9-1.7-.4-.5-.9-.9-1.5-1.2-.6-.3-1.2-.6-1.8-.7-.6-.2-1.3-.2-2-.2-.7,0-1.3.1-1.9.4-.6.2-1.1.6-1.5,1.1-.4.5-.8,1.1-.9,1.9s-.2,1.5,0,2.1c.2.6.5,1.2.9,1.7.4.5.9.9,1.5,1.2.6.3,1.2.6,1.8.7.6.2,1.3.2,2,.2Z"/>
        </g>
      </g>
      <g class="cls-2">
        <g class="cls-2">
          <path class="cls-1" d="M8.6,46.3l10.6,4.9,2.9-6.3,1.3.6-3.7,7.9-11.9-5.5.7-1.6Z"/>
        </g>
      </g>
      <g class="cls-2">
        <g class="cls-2">
          <path class="cls-1" d="M14.3,35.6l9.6,6.6,3.9-5.7,1.2.8-4.9,7.2-10.8-7.4,1-1.4Z"/>
        </g>
      </g>
      <g class="cls-2">
        <g class="cls-2">
          <path class="cls-1" d="M24.8,24.8l-1-1.1,7.9-6.9,1,1.1-3.3,2.9,7.6,8.8-1.3,1.1-7.6-8.8-3.3,2.9Z"/>
        </g>
      </g>
      <g class="cls-2">
        <g class="cls-2">
          <path class="cls-1" d="M36.5,18.3c-.2-.9-.2-1.7,0-2.5s.5-1.6,1-2.3c.5-.7,1.2-1.3,2.1-1.8.9-.5,1.8-.8,2.7-.8.9,0,1.7,0,2.5.4.8.3,1.5.7,2.1,1.3s1.2,1.3,1.6,2.1c.4.8.7,1.6.9,2.4.2.9.2,1.7,0,2.5-.1.8-.5,1.6-1,2.3-.5.7-1.2,1.3-2.1,1.8-.9.5-1.8.8-2.7.9-.9,0-1.7,0-2.5-.4-.8-.3-1.5-.7-2.1-1.3-.6-.6-1.2-1.3-1.6-2.1-.4-.8-.7-1.6-.9-2.4ZM40.1,21.5c.5.5,1,.8,1.6,1.1.6.3,1.2.4,1.8.4.7,0,1.3-.2,2-.6s1.2-.9,1.6-1.4c.3-.6.6-1.1.6-1.8,0-.6,0-1.3-.1-1.9-.2-.6-.4-1.3-.7-1.8-.3-.6-.7-1.1-1.2-1.6-.5-.5-1-.8-1.6-1.1-.6-.3-1.2-.4-1.8-.4-.7,0-1.3.2-2,.6s-1.2.9-1.6,1.4c-.3.6-.6,1.1-.6,1.8,0,.6,0,1.3.1,1.9.2.6.4,1.3.7,1.8.3.6.7,1.1,1.2,1.6Z"/>
        </g>
      </g>
      <g class="cls-2">
        <g class="cls-2">
          <path class="cls-1" d="M61.2,17.4l-7.4-11.8,1.8-.4,6.1,10.3h0s1.2-11.9,1.2-11.9l1.8-.4-1.7,13.8-1.9.4Z"/>
        </g>
      </g>
      <g class="cls-2">
        <g class="cls-2">
          <path class="cls-1" d="M69.6,2.8l1.2,13.1-1.7.2-1.2-13.1,1.7-.2Z"/>
        </g>
      </g>
      <g class="cls-2">
        <g class="cls-2">
          <path class="cls-1" d="M83.2,2.9v1.5c0,0-7.4-.3-7.4-.3l-.2,4.2,6.8.3v1.5c0,0-6.9-.3-6.9-.3l-.2,4.5,7.4.3v1.5c0,0-9.2-.4-9.2-.4l.5-13.1,9,.4Z"/>
        </g>
      </g>
      <g class="cls-2">
        <g class="cls-2">
          <path class="cls-1" d="M94.1,18.7V7.3c0,0,0,0,0,0l-5.9,9.8-1.8-.5.3-13.5,1.7.5-.4,11.2h0s5.8-9.7,5.8-9.7l1.8.5v11.3c-.1,0,0,0,0,0l5.5-9.8,1.7.5-6.9,11.7-1.8-.5Z"/>
        </g>
      </g>
      <g class="cls-2">
        <g class="cls-2">
          <path class="cls-1" d="M116.8,15.7c1.1.7,1.7,1.6,1.9,2.5s0,1.9-.8,2.9c-.7,1-1.5,1.6-2.4,1.8-.9.2-2,0-3.1-.8l-3.3-2.2-3,4.4-1.4-1,7.3-10.9,4.8,3.2ZM112.8,20.6c.8.6,1.5.8,2.1.7.6,0,1.1-.5,1.6-1.1.4-.6.6-1.3.4-1.9-.2-.6-.6-1.2-1.5-1.7l-2.8-1.9-2.7,4,2.8,1.9Z"/>
        </g>
      </g>
      <g class="cls-2">
        <g class="cls-2">
          <path class="cls-1" d="M127.9,25.2c.9.9,1.3,1.8,1.4,2.7s-.3,1.8-1,2.5c-.6.6-1.2.9-1.9,1.1-.7.2-1.4,0-2.1-.4h0c.2.3.3.7.4.9,0,.3,0,.6,0,.8,0,.3-.2.5-.3.8s-.3.5-.5.8c-.2.2-.4.5-.7.7-.2.2-.4.5-.6.7-.2.3-.4.5-.5.8-.1.3-.2.5-.3.8l-1.4-1.4c0-.2,0-.4.2-.6.1-.2.3-.4.5-.6.2-.2.4-.4.6-.7.2-.2.4-.5.6-.8.2-.3.4-.5.5-.8s.2-.5.3-.8c0-.3,0-.5,0-.8,0-.3-.3-.6-.6-.9l-3-3-4,3.9-1.2-1.2,9.3-9.2,4.3,4.4ZM123.9,29.6c.3.2.6.4.9.4s.6,0,1,0c.3,0,.7-.3,1-.6.5-.5.7-1,.8-1.5,0-.6-.2-1.1-.8-1.7l-3-3.1-3.3,3.2,2.6,2.6c.3.3.6.5.9.8Z"/>
        </g>
      </g>
      <g class="cls-2">
        <g class="cls-2">
          <path class="cls-1" d="M130.2,33.6c.8-.2,1.7-.3,2.5-.2.8.1,1.6.4,2.3.8.7.5,1.4,1.1,1.9,2,.6.9.9,1.8,1,2.6,0,.9,0,1.7-.2,2.5-.3.8-.7,1.5-1.2,2.2-.6.7-1.2,1.2-2,1.7s-1.6.8-2.4,1c-.8.2-1.7.3-2.5.2-.8-.1-1.6-.4-2.3-.9-.7-.5-1.4-1.1-1.9-2s-.9-1.8-1-2.6c-.1-.9,0-1.7.2-2.5.3-.8.7-1.5,1.2-2.2.6-.7,1.2-1.2,2-1.7.8-.5,1.6-.8,2.4-1ZM127.2,37.4c-.5.5-.8,1-1,1.6-.2.6-.3,1.2-.3,1.9,0,.7.3,1.3.7,2,.4.7.9,1.2,1.5,1.5.6.3,1.2.5,1.8.5.6,0,1.3,0,1.9-.2.6-.2,1.2-.5,1.8-.8s1.1-.8,1.5-1.3c.5-.5.8-1,1-1.6s.3-1.2.3-1.9c0-.7-.3-1.3-.7-2s-.9-1.2-1.5-1.5c-.6-.3-1.2-.5-1.8-.5s-1.3,0-1.9.2c-.6.2-1.2.5-1.8.8s-1.1.8-1.5,1.3Z"/>
        </g>
      </g>
      <g class="cls-2">
        <g class="cls-2">
          <path class="cls-1" d="M133.7,55.9c-.4,0-.9,0-1.3-.2s-.8-.4-1.2-.8c-.4-.4-.7-.9-1-1.6-.4-1.1-.5-2.1-.1-3,.4-.8,1.1-1.5,2.3-2l.8-.3.6,1.6-.5.2c-.4.1-.7.3-.9.5s-.5.4-.7.6c-.2.2-.3.5-.3.8,0,.3,0,.7.2,1.1.3.7.7,1.2,1.2,1.3.5.1,1.1,0,1.8-.2l8.9-3.5.6,1.6-9.2,3.6c-.4.2-.8.3-1.3.3Z"/>
        </g>
      </g>
      <g class="cls-2">
        <g class="cls-2">
          <path class="cls-1" d="M147.4,65.5l-1.4.3-1.5-7.2-4.1.8,1.4,6.7-1.4.3-1.4-6.7-4.4.9,1.5,7.2-1.4.3-1.8-8.9,12.9-2.6,1.8,8.9Z"/>
        </g>
      </g>
      <g class="cls-2">
        <g class="cls-2">
          <path class="cls-1" d="M146.1,77.6c.5-.7.7-1.5.7-2.4,0-.8-.2-1.5-.5-2s-.7-1-1.2-1.4c-.5-.4-1.1-.6-1.7-.8-.6-.2-1.3-.2-2-.2-.7,0-1.5.1-2.1.3-.7.2-1.2.5-1.7.8s-.9.8-1.2,1.4c-.3.6-.4,1.2-.4,2,0,.6.1,1.1.3,1.5.2.4.5.8.8,1.1.3.3.7.6,1.2.7.5.2,1,.3,1.5.3v1.7c-1.6-.1-2.9-.7-3.9-1.6-.9-1-1.4-2.3-1.4-3.9,0-1,.1-1.9.5-2.7.3-.8.8-1.4,1.4-1.9.6-.5,1.3-.9,2.1-1.2.8-.3,1.7-.4,2.7-.4,1,0,1.9.1,2.7.4.8.3,1.6.6,2.2,1.1.6.5,1.1,1.2,1.5,1.9s.6,1.7.6,2.7c0,.7,0,1.3-.2,2-.2.6-.4,1.2-.8,1.6-.3.5-.8.9-1.3,1.2-.5.3-1.1.5-1.8.7v-1.7c.9-.2,1.6-.7,2-1.3Z"/>
        </g>
      </g>
      <g class="cls-2">
        <g class="cls-2">
          <path class="cls-1" d="M146.1,83.7l1.4.3-2,10.3-1.4-.3.8-4.3-11.4-2.2.3-1.7,11.4,2.2.8-4.3Z"/>
        </g>
      </g>
      <g class="cls-2">
        <g class="cls-2">
          <path class="cls-1" d="M140.5,103.1c.6-.4,1.1-1,1.4-1.8.1-.3.2-.7.3-1,0-.4,0-.7,0-1,0-.3-.2-.6-.4-.9-.2-.3-.5-.5-.9-.6-.4-.1-.7-.2-1,0-.3.1-.6.4-.9.7-.3.3-.6.7-.9,1.1-.3.4-.6.9-.9,1.3-.3.4-.6.9-1,1.3-.3.4-.7.7-1.1,1-.4.3-.9.4-1.3.5-.5,0-1,0-1.6-.3-.6-.3-1.1-.6-1.5-1.1s-.6-1-.7-1.6c-.1-.6-.1-1.2,0-1.8,0-.6.2-1.2.5-1.8.3-.7.6-1.3,1-1.8.4-.5.9-1,1.4-1.3.5-.3,1.1-.5,1.8-.6.6,0,1.3,0,2.1.4l-.6,1.5c-.5-.2-1-.3-1.4-.2-.4,0-.9.2-1.2.4-.4.2-.7.5-1,.9-.3.4-.5.8-.7,1.3-.1.4-.3.7-.3,1.1,0,.4,0,.8,0,1.1,0,.4.2.7.4,1,.2.3.5.5,1,.7.4.2.8.2,1.2,0,.3-.1.7-.3,1-.6.3-.3.6-.7.9-1.1.3-.4.6-.9.9-1.3.3-.4.6-.9.9-1.3.3-.4.7-.8,1.1-1,.4-.3.8-.5,1.3-.5.5,0,1,0,1.5.2.6.2,1.1.6,1.5,1,.4.4.6.9.7,1.4.1.5.2,1.1,0,1.7,0,.6-.2,1.2-.4,1.7-.2.6-.5,1.2-.9,1.7-.4.5-.8.9-1.3,1.1-.5.3-1,.4-1.6.5-.6,0-1.2,0-1.9-.3l.6-1.5c.9.3,1.7.2,2.3-.2Z"/>
        </g>
      </g>
    </g>
  </g>
</svg>